PathFileType	4	(X/Y/Z)	C:/Users/opensim2020/Desktop/walking_exp_matlab/subject06_walking12_straigt_03.trc																																																																																																																																														
DataRate	CameraRate	NumFrames	NumMarkers	Units	OrigDataRate	OrigDataStartFrame	OrigNumFrames																																																																																																																																										
100	100	7	48	mm	100	2072	184																																																																																																																																										
Frame#	Time	LFHD			RFHD			LBHD			RBHD			C7			T10			CLAV			STRN			RBAK			LSHO			LUPA			LELB			LFRM			LWRA			LWRB			LFIN			RSHO			RUPA			RELB			RFRM			RWRA			RWRB			RFIN			LASI			RASI			LPSI			RPSI			LTHI			LKNE			LTIB			LANK			LHEE			LTOE			RTHI			RKNE			RTIB			RANK			RHEE			RTOE			*39			*40			*41			*42			*43			*44			*45			*46			*47		
		X1	Y1	Z1	X2	Y2	Z2	X3	Y3	Z3	X4	Y4	Z4	X5	Y5	Z5	X6	Y6	Z6	X7	Y7	Z7	X8	Y8	Z8	X9	Y9	Z9	X10	Y10	Z10	X11	Y11	Z11	X12	Y12	Z12	X13	Y13	Z13	X14	Y14	Z14	X15	Y15	Z15	X16	Y16	Z16	X17	Y17	Z17	X18	Y18	Z18	X19	Y19	Z19	X20	Y20	Z20	X21	Y21	Z21	X22	Y22	Z22	X23	Y23	Z23	X24	Y24	Z24	X25	Y25	Z25	X26	Y26	Z26	X27	Y27	Z27	X28	Y28	Z28	X29	Y29	Z29	X30	Y30	Z30	X31	Y31	Z31	X32	Y32	Z32	X33	Y33	Z33	X34	Y34	Z34	X35	Y35	Z35	X36	Y36	Z36	X37	Y37	Z37	X38	Y38	Z38	X39	Y39	Z39	X40	Y40	Z40	X41	Y41	Z41	X42	Y42	Z42	X43	Y43	Z43	X44	Y44	Z44	X45	Y45	Z45	X46	Y46	Z46	X47	Y47	Z47	X48	Y48	Z48
																																																																																																																																																	
1	0	-741.79089	1660.74683	-1054.43835	-757.53046	1645.44189	-925.61591	-879.50751	1618.75171	-1072.32947	-892.09491	1608.90698	-943.66394	-898.05609	1454.83606	-1018.38892	-940.56946	1125.58972	-1015.06042	-790.62415	1373.46143	-1011.56555	-753.77057	1198.98022	-1020.3811	-979.39288	1284.7594	-945.24579	-833.73431	1411.70459	-1174.0387	-796.99957	1219.55164	-1261.51709	-771.14746	1111.54932	-1285.16492	-700.27582	980.45605	-1312.91516	-619.77838	881.09235	-1265.27319	-664.43213	866.61871	-1318.5271	-600.5246	803.24701	-1316.65381	-845.36475	1406.25513	-852.8634	-909.17249	1214.13049	-769.12054	-915.50848	1091.69055	-757.09729	-918.55151	971.28925	-739.06183	-879.37024	824.21454	-765.5849	-935.33685	833.7287	-729.91107	-910.58246	753.22803	-725.27155	-758.08032	964.66101	-1115.44531	-770.77405	970.92847	-895.15057	-917.07117	994.29736	-1092.54053	-919.28625	991.36981	-925.25995	-847.99817	652.72748	-1174.63818	-868.80591	489.05856	-1156.31653	-928.62067	237.2338	-1146.21655	-941.09766	65.12796	-1098.1322	-977.7442	52.36975	-1050.21326	-797.72626	32.79096	-1109.69104	-749.81787	645.31543	-830.14856	-700.52045	528.82874	-847.99243	-821.27783	299.11008	-860.27112	-910.3717	137.76556	-909.06805	-952.45935	128.42761	-958.2547	-785.99237	49.33898	-897.15411	-845.2998	1706.26233	-1006.21619	NaN	NaN	NaN	NaN	NaN	NaN	NaN	NaN	NaN	NaN	NaN	NaN	NaN	NaN	NaN	NaN	NaN	NaN	NaN	NaN	NaN	NaN	NaN	NaN
2	0.01	-733.1748	1660.17798	-1055.62378	-748.91705	1644.80066	-926.68768	-870.8573	1618.33936	-1073.36401	-883.39587	1608.35229	-944.6817	-889.57428	1454.46582	-1019.64294	-932.39728	1125.24268	-1016.40479	-782.29443	1372.91907	-1012.80304	-745.65997	1198.4054	-1021.73035	-971.13031	1284.44238	-946.85071	-825.24573	1411.50476	-1175.33691	-786.6134	1219.88135	-1262.70654	-759.09601	1112.23645	-1286.18994	-684.77527	982.84692	-1313.64148	-600.82446	886.41772	-1266.02332	-645.64264	869.99445	-1318.51318	-579.63977	808.50873	-1316.80103	-837.04144	1405.65698	-854.17255	-902.36218	1214.02954	-770.69061	-909.93097	1091.67773	-758.64709	-914.13318	971.26831	-740.64307	-875.92413	824.05066	-766.70068	-932.25256	833.94684	-731.55457	-908.53967	753.12421	-726.96661	-750.01282	963.6817	-1116.49341	-762.5907	970.67804	-896.25714	-908.83789	993.79803	-1093.54333	-911.06561	991.34436	-926.24542	-841.82513	652.01874	-1174.93787	-864.14142	488.60403	-1156.51123	-926.46265	237.34314	-1146.16846	-940.77924	65.34394	-1098.00159	-977.612	52.74294	-1050.01208	-797.67578	32.7747	-1109.80139	-739.91107	646.45642	-830.35034	-690.22815	530.05347	-849.29199	-802.3703	295.00281	-861.43604	-882.54047	128.79579	-909.93597	-923.70337	117.14446	-959.40131	-753.69794	47.1003	-896.57104	-836.52289	1705.76074	-1007.17657	NaN	NaN	NaN	NaN	NaN	NaN	NaN	NaN	NaN	NaN	NaN	NaN	NaN	NaN	NaN	NaN	NaN	NaN	NaN	NaN	NaN	NaN	NaN	NaN
3	0.02	-724.40167	1659.453	-1056.42822	-740.06183	1643.98059	-927.78729	-862.31293	1617.63428	-1074.66699	-874.65662	1607.64233	-945.54047	-881.08423	1453.9021	-1020.815	-924.23322	1124.8103	-1017.61902	-773.91589	1372.18164	-1013.97314	-737.48828	1197.67249	-1023.11609	-962.87268	1283.9397	-948.27167	-816.6557	1410.98486	-1176.32458	-776.36481	1219.93921	-1263.66699	-747.32886	1112.62256	-1287.08875	-669.78186	985.06116	-1314.27759	-582.08856	891.88147	-1266.6543	-627.28564	873.30695	-1318.22803	-559.28998	813.86792	-1316.54285	-828.57471	1404.87769	-855.2843	-895.60632	1213.80725	-772.19257	-904.06476	1091.48779	-760.13629	-909.54999	971.14844	-742.15393	-872.5592	823.51233	-768.01135	-928.91351	834.00568	-732.97607	-906.08411	752.88354	-728.6507	-741.79791	962.60065	-1117.3147	-754.33478	970.42468	-897.31079	-900.57739	993.25494	-1094.43579	-902.91632	991.19965	-927.14966	-835.63263	651.27789	-1175.23706	-859.31732	488.09021	-1156.70056	-924.30029	237.42242	-1146.12256	-940.42651	65.59809	-1097.8783	-977.3866	53.14294	-1049.8656	-797.72815	32.68008	-1109.78564	-730.26788	646.9317	-830.86017	-680.19208	531.05823	-849.96777	-783.3894	290.76019	-862.32697	-854.11816	120.09246	-910.29279	-894.28986	106.26895	-960.10754	-721.40076	45.06883	-895.66174	-827.76624	1705.07776	-1007.95715	NaN	NaN	NaN	NaN	NaN	NaN	NaN	NaN	NaN	NaN	NaN	NaN	NaN	NaN	NaN	NaN	NaN	NaN	NaN	NaN	NaN	NaN	NaN	NaN
4	0.03	-715.86365	1658.69434	-1057.32263	-731.24725	1642.9386	-928.56354	-853.68115	1616.9635	-1075.42175	-865.77722	1606.73499	-946.35938	-872.54333	1453.22913	-1021.86945	-915.79224	1123.99402	-1018.61322	-765.49017	1371.33423	-1015.12231	-729.37439	1196.75195	-1024.41785	-954.39935	1283.27917	-949.5849	-808.16956	1410.49426	-1177.38501	-766.48761	1219.80151	-1264.62769	-735.83752	1112.67871	-1287.75781	-655.10675	987.04584	-1314.62256	-563.79095	897.43652	-1267.14368	-609.32318	876.57574	-1317.63733	-539.42456	819.47968	-1316.11792	-819.84747	1403.95154	-856.32013	-888.49805	1213.4325	-773.51642	-897.99066	1091.18066	-761.53638	-904.58124	970.83435	-743.61591	-869.30219	822.69183	-769.63019	-925.4389	833.82507	-734.67065	-903.32587	752.51599	-730.16998	-733.47754	961.44952	-1118.00403	-746.24768	969.74701	-898.0058	-892.23938	992.63428	-1095.3645	-894.75818	990.87744	-928.0119	-829.66833	650.61084	-1175.81531	-854.52222	487.60083	-1156.77332	-921.85297	237.4646	-1145.98315	-939.99683	65.80235	-1097.74988	-977.43451	53.77603	-1049.50256	-797.42554	32.78497	-1109.92493	-720.96863	647.35327	-830.95544	-670.45416	531.27551	-850.88336	-764.25067	286.4296	-862.80914	-825.2674	111.8226	-910.19049	-864.52686	95.99568	-960.14063	-689.05182	43.39342	-894.57104	-819.03375	1704.18628	-1008.62231	NaN	NaN	NaN	NaN	NaN	NaN	NaN	NaN	NaN	NaN	NaN	NaN	NaN	NaN	NaN	NaN	NaN	NaN	NaN	NaN	NaN	NaN	NaN	NaN
5	0.04	-707.34723	1658.04187	-1058.42981	-722.35333	1641.93188	-929.38568	-845.08618	1616.15173	-1076.06909	-856.97217	1605.63269	-946.90808	-863.97296	1452.47278	-1022.78278	-907.4585	1123.2467	-1019.47461	-756.86664	1370.38379	-1016.36908	-721.06268	1195.76489	-1025.55737	-945.90167	1282.50635	-950.64764	-799.56848	1409.79053	-1178.4209	-756.58167	1219.43115	-1265.31653	-724.71222	1112.43835	-1288.38647	-640.89612	988.96362	-1314.89917	-545.9624	903.10956	-1267.52954	-591.7453	879.78162	-1316.76965	-519.86707	825.03082	-1315.53772	-811.09589	1402.93726	-857.27588	-881.09161	1212.83594	-774.57031	-891.62817	1090.6748	-762.89655	-899.42255	970.40839	-745.02502	-865.87494	821.89008	-771.43634	-921.61194	833.64172	-736.07806	-900.43994	752.07428	-731.56183	-725.33008	959.98425	-1118.82288	-737.92767	969.08734	-898.79004	-883.82495	991.89813	-1096.1615	-886.5636	990.3349	-928.78076	-823.13391	649.7558	-1175.76526	-849.63983	486.96149	-1156.86072	-919.37231	237.44978	-1145.83582	-939.60278	66.05341	-1097.59802	-977.39374	54.31853	-1049.11536	-796.97089	32.9549	-1110.12549	-712.23163	647.026	-831.52728	-661.46167	531.22925	-851.85065	-744.90546	282.10107	-863.09161	-795.94238	104.05033	-909.56183	-834.53607	86.75566	-959.64252	-656.5921	41.93968	-893.36322	-810.27582	1703.3219	-1009.11432	NaN	NaN	NaN	NaN	NaN	NaN	NaN	NaN	NaN	NaN	NaN	NaN	NaN	NaN	NaN	NaN	NaN	NaN	NaN	NaN	NaN	NaN	NaN	NaN
6	0.05	-698.51746	1657.00818	-1058.9176	-713.47363	1640.75623	-930.06165	-836.45587	1615.28333	-1076.60364	-848.05182	1604.5282	-947.46777	-855.07294	1451.55066	-1023.56891	-899.08575	1122.38	-1020.22125	-748.3775	1369.28638	-1017.08911	-712.67194	1194.64868	-1026.50098	-937.31665	1281.65686	-951.52911	-791.01764	1408.93542	-1179.2135	-746.97852	1218.81006	-1265.83826	-713.99902	1112.16467	-1288.70605	-626.97729	990.59698	-1314.8894	-528.59473	908.75861	-1267.70972	-574.4834	882.91327	-1315.56726	-500.819	830.633	-1314.6864	-802.14709	1401.82422	-858.07214	-873.49579	1212.13293	-775.59857	-884.93762	1090.05408	-764.13641	-893.90137	969.84558	-746.35492	-861.63458	820.88611	-772.47815	-917.93335	833.41901	-737.25403	-897.07513	751.52753	-732.8819	-716.59912	958.51056	-1119.1864	-729.88013	968.25195	-899.3385	-875.38171	991.07874	-1096.88635	-878.37048	989.65161	-929.49335	-816.77679	648.85065	-1175.98645	-844.69025	486.31284	-1156.94934	-916.82092	237.40923	-1145.62292	-939.16364	66.26555	-1097.43433	-977.17255	54.69641	-1048.92371	-796.86566	32.92589	-1110.08801	-703.88745	646.59753	-831.78925	-652.6214	530.65912	-853.15826	-725.40295	277.92252	-862.99969	-766.23328	96.97528	-908.47528	-803.65137	77.63378	-958.34729	-624.13861	40.92583	-892.02875	-801.51929	1702.24524	-1009.55591	NaN	NaN	NaN	NaN	NaN	NaN	NaN	NaN	NaN	NaN	NaN	NaN	NaN	NaN	NaN	NaN	NaN	NaN	NaN	NaN	NaN	NaN	NaN	NaN
7	0.06	-689.88171	1656.03406	-1059.56738	-704.60773	1639.49756	-930.59521	-827.77386	1614.2854	-1077.02441	-839.15851	1603.2998	-947.91895	-846.47833	1450.59131	-1024.26404	-890.67389	1121.3866	-1020.82184	-739.67737	1368.13196	-1017.94556	-704.33142	1193.35486	-1027.45752	-928.63501	1280.7666	-952.21356	-782.45013	1407.93652	-1179.95886	-737.43036	1218.06567	-1266.30737	-703.38776	1111.62183	-1288.95801	-613.38269	992.1402	-1314.68396	-511.8063	914.40149	-1267.67993	-557.65619	886.01544	-1314.16711	-482.19778	836.29346	-1313.54553	-793.19446	1400.70496	-858.77637	-865.48682	1211.30469	-776.64044	-878.02997	1089.33264	-765.29919	-888.10498	969.16968	-747.5434	-856.99768	819.89948	-773.49036	-913.0434	832.84503	-738.77246	-893.61591	751.01343	-734.1571	-708.3064	957.19965	-1119.54883	-721.71198	966.86737	-899.48096	-866.96796	990.11511	-1097.52075	-870.09863	988.73724	-930.15118	-810.40546	647.84967	-1176.24072	-839.745	485.50809	-1157.02563	-914.33496	237.34734	-1145.47156	-938.76038	66.46736	-1097.22595	-976.94122	55.07198	-1048.70862	-796.81458	32.87945	-1109.99695	-695.92273	645.6123	-831.97162	-644.45209	530.07678	-853.62598	-705.78308	273.84985	-862.56488	-736.29608	90.63449	-907.09436	-772.65771	69.8298	-956.98065	-591.83984	40.19397	-890.88647	-792.7229	1701.1604	-1009.91272	NaN	NaN	NaN	NaN	NaN	NaN	NaN	NaN	NaN	NaN	NaN	NaN	NaN	NaN	NaN	NaN	NaN	NaN	NaN	NaN	NaN	NaN	NaN	NaN
